<svg width="16" height="16" viewBox="0 0 16 16" fill="none" xmlns="http://www.w3.org/2000/svg">
<path d="M0 13.1719L0 14.1094H11.3125V15.0469H14.125V14.1094L16 14.1094V13.1719H14.125V12.2344H11.3125V13.1719H0Z" fill="#002060"/>
<path d="M11.3125 1.89063L0 1.89062L0 2.82812L11.3125 2.82813V3.76563H14.125V2.82813H16V1.89063H14.125V0.953125H11.3125V1.89063Z" fill="#002060"/>
<path d="M0 5.64062L0 6.57812H6.9375V7.51562L9.75 7.51563V6.57813H16V5.64063H9.75V4.70312H6.9375V5.64062H0Z" fill="#002060"/>
<path d="M0 9.42188L0 10.3594H1.67663V11.2969H4.48912V10.3594L16 10.3594V9.42188H4.48912V8.48438H1.67663V9.42188H0Z" fill="#002060"/>
</svg>
