<svg width="22" height="21" viewBox="0 0 22 21" fill="none" xmlns="http://www.w3.org/2000/svg">
<path d="M20.1712 12.4254L21.9768 4.48094C22.1072 3.90734 21.6712 3.36112 21.083 3.36112H6.08086L5.73077 1.64962C5.64354 1.22303 5.26816 0.916672 4.83271 0.916672H0.916667C0.410399 0.916672 0 1.32707 0 1.83334V2.44445C0 2.95072 0.410399 3.36112 0.916667 3.36112H3.58581L6.26889 16.4784C5.627 16.8476 5.19444 17.5397 5.19444 18.3333C5.19444 19.5146 6.15206 20.4722 7.33333 20.4722C8.51461 20.4722 9.47222 19.5146 9.47222 18.3333C9.47222 17.7347 9.22598 17.1938 8.82964 16.8056H16.837C16.4407 17.1938 16.1944 17.7347 16.1944 18.3333C16.1944 19.5146 17.1521 20.4722 18.3333 20.4722C19.5146 20.4722 20.4722 19.5146 20.4722 18.3333C20.4722 17.4865 19.98 16.7547 19.2661 16.4081L19.4768 15.4809C19.6072 14.9073 19.1712 14.3611 18.5829 14.3611H8.33086L8.08088 13.1389H19.2774C19.7054 13.1389 20.0764 12.8427 20.1712 12.4254Z" fill="#002060"/>
</svg>
