<svg width="13" height="14" viewBox="0 0 13 14" fill="none" xmlns="http://www.w3.org/2000/svg">
<path d="M12.25 13.4531V14H0V13.4531C0 13.2719 0.146918 13.125 0.328125 13.125H0.875V3.28125C0.875 2.91881 1.16881 2.625 1.53125 2.625H3.9375V0.65625C3.9375 0.293809 4.23131 0 4.59375 0H7.65625C8.01869 0 8.3125 0.293809 8.3125 0.65625V2.625H10.7188C11.0812 2.625 11.375 2.91881 11.375 3.28125V13.125H11.9219C12.1031 13.125 12.25 13.2719 12.25 13.4531ZM8.42188 5.25H7.32812C7.14692 5.25 7 5.39692 7 5.57812V6.67188C7 6.85308 7.14692 7 7.32812 7H8.42188C8.60308 7 8.75 6.85308 8.75 6.67188V5.57812C8.75 5.39692 8.60308 5.25 8.42188 5.25ZM3.82812 7H4.92188C5.10308 7 5.25 6.85308 5.25 6.67188V5.57812C5.25 5.39692 5.10308 5.25 4.92188 5.25H3.82812C3.64692 5.25 3.5 5.39692 3.5 5.57812V6.67188C3.5 6.85308 3.64692 7 3.82812 7ZM6.67188 10.5H5.57812C5.39692 10.5 5.25 10.6469 5.25 10.8281V13.125H7V10.8281C7 10.6469 6.85308 10.5 6.67188 10.5ZM8.42188 7.875H7.32812C7.14692 7.875 7 8.02192 7 8.20312V9.29688C7 9.47808 7.14692 9.625 7.32812 9.625H8.42188C8.60308 9.625 8.75 9.47808 8.75 9.29688V8.20312C8.75 8.02192 8.60308 7.875 8.42188 7.875ZM5.25 8.20312C5.25 8.02192 5.10308 7.875 4.92188 7.875H3.82812C3.64692 7.875 3.5 8.02192 3.5 8.20312V9.29688C3.5 9.47808 3.64692 9.625 3.82812 9.625H4.92188C5.10308 9.625 5.25 9.47808 5.25 9.29688V8.20312ZM4.97656 2.625H5.6875V3.33594C5.6875 3.37945 5.70478 3.42118 5.73555 3.45195C5.76632 3.48271 5.80805 3.5 5.85156 3.5H6.39844C6.44195 3.5 6.48368 3.48271 6.51445 3.45195C6.54522 3.42118 6.5625 3.37945 6.5625 3.33594V2.625H7.27344C7.31695 2.625 7.35868 2.60771 7.38945 2.57695C7.42022 2.54618 7.4375 2.50445 7.4375 2.46094V1.91406C7.4375 1.87055 7.42022 1.82882 7.38945 1.79805C7.35868 1.76729 7.31695 1.75 7.27344 1.75H6.5625V1.03906C6.5625 0.99555 6.54522 0.95382 6.51445 0.923053C6.48368 0.892285 6.44195 0.875 6.39844 0.875H5.85156C5.80805 0.875 5.76632 0.892285 5.73555 0.923053C5.70478 0.95382 5.6875 0.99555 5.6875 1.03906V1.75H4.97656C4.93305 1.75 4.89132 1.76729 4.86055 1.79805C4.82978 1.82882 4.8125 1.87055 4.8125 1.91406V2.46094C4.8125 2.50445 4.82978 2.54618 4.86055 2.57695C4.89132 2.60771 4.93305 2.625 4.97656 2.625Z" fill="#002060"/>
</svg>
