<svg width="80" height="67" viewBox="0 0 80 67" fill="none" xmlns="http://www.w3.org/2000/svg">
<path d="M11.8125 60.1393C27.4868 69.1781 52.8125 69.1777 68.3849 60.1389C75.8509 55.8051 79.7081 50.181 79.984 44.5043C80.2838 38.3406 76.3598 32.1147 68.2002 27.4093C52.526 18.3705 27.1948 18.3679 11.6226 27.4065C3.83384 31.9276 -0.0373477 37.8535 0.000271542 43.7794C0.0376907 49.7005 3.97811 55.6217 11.8125 60.1393Z" fill="#BBFFFF"/>
<g clip-path="url(#clip0)">
<path d="M44.802 31.3184C44.4804 31.1345 43.9749 31.1345 43.4694 31.4564C42.4585 32.0543 41.5854 33.4799 41.5854 34.6756C41.5854 35.2735 41.8152 35.6874 42.1369 35.8713L65.3881 50.5878C65.8476 50.9097 66.5369 50.9097 67.318 50.4498C68.7425 49.622 69.9372 47.5985 69.9372 45.9429C69.9372 45.0691 69.6156 44.4712 69.1101 44.1953L44.802 31.3184Z" fill="#13A6CE"/>
<path opacity="0.15" d="M41.5854 34.6758C41.5854 35.8715 42.4126 36.3314 43.4694 35.7795C44.4804 35.1816 45.3534 33.756 45.3534 32.5603C45.3534 31.3646 44.5263 30.9047 43.4694 31.4566C42.4126 32.0544 41.5854 33.4801 41.5854 34.6758Z" fill="black"/>
<path d="M36.4393 28.2372C35.796 28.6051 35.2905 29.4789 35.2905 30.2147C35.2905 30.5826 35.4284 30.8125 35.6122 30.9505L42.6427 35.0435C42.8265 35.1815 43.1481 35.1355 43.4239 34.9515C44.0672 34.5836 44.5726 33.7098 44.5726 32.974C44.5726 32.6061 44.4348 32.3762 44.251 32.2382L37.2205 28.1452C37.0367 28.0072 36.761 28.0532 36.4393 28.2372Z" fill="#263238"/>
<path opacity="0.1" d="M44.3429 34.9974L68.2833 49.7138C68.0076 50.0357 67.686 50.2657 67.3184 50.4956C66.5831 50.9095 65.8939 50.9555 65.3884 50.6336L42.1372 35.9172C42.4589 36.1011 42.9643 36.1011 43.4698 35.7792C43.7455 35.5953 44.0671 35.3193 44.3429 34.9974Z" fill="black"/>
<path d="M48.3407 14.0726C48.3407 13.8886 48.3407 13.7047 48.2948 13.4747C48.2948 13.2908 48.2488 13.1068 48.2488 12.9228C48.2488 12.7849 48.2029 12.6929 48.2029 12.5549C48.1569 12.233 48.1109 11.9111 48.065 11.5892C48.019 11.4512 48.019 11.3132 47.9731 11.1753C47.9271 11.0373 47.9271 10.8993 47.8812 10.7614C47.7893 10.3935 47.6974 10.0715 47.6055 9.70363C47.5595 9.56567 47.5136 9.38171 47.4676 9.24375C47.4676 9.19776 47.4676 9.19776 47.4217 9.15177C47.3757 9.0138 47.3298 8.82985 47.2379 8.69188C47.1919 8.50793 47.1 8.36996 47.0081 8.186C46.9622 8.04804 46.9162 7.95606 46.8243 7.81809C46.7784 7.72612 46.7324 7.63414 46.6865 7.58815C46.6405 7.49617 46.5946 7.40419 46.5486 7.31222C46.5486 7.26623 46.5027 7.26623 46.5027 7.26623C46.4567 7.17425 46.4108 7.08227 46.3648 6.9903C46.3189 6.94431 46.2729 6.89832 46.2729 6.80634C45.9972 6.39244 45.7215 6.02453 45.4458 5.70261C45.3998 5.65662 45.3539 5.56464 45.3079 5.51865C45.262 5.47267 45.216 5.42668 45.1701 5.38069C45.1241 5.3347 45.0782 5.28871 44.9863 5.19673C44.8025 5.01278 44.6646 4.87481 44.4808 4.73685C44.3889 4.64487 44.297 4.59888 44.2051 4.55289C44.1132 4.5069 44.0213 4.41492 43.9294 4.36893C43.7915 4.27696 43.6537 4.18498 43.5158 4.093C43.4699 4.04701 43.4239 4.04701 43.378 4.00102H43.332L38.2774 1.05774L38.2315 1.01175C37.1286 0.36791 35.6582 0 34.0959 0C31.8443 0 29.3629 0.735821 26.6518 2.25345C17.5075 7.58815 10.0635 20.465 10.0635 31.0424C10.0635 36.3311 11.9015 40.0562 14.8883 41.8038H14.9343L19.9889 44.7471H20.0349C20.0808 44.7471 20.0808 44.7931 20.1268 44.7931C20.2646 44.8851 20.4025 44.931 20.5403 45.023C20.7241 45.115 20.862 45.161 21.0458 45.253C21.1836 45.299 21.3674 45.3909 21.5053 45.4369C21.5972 45.4829 21.6891 45.4829 21.735 45.5289C21.8269 45.5749 21.9188 45.5749 22.0107 45.6209C22.1027 45.6669 22.1946 45.6669 22.2865 45.6669C22.3324 45.6669 22.4243 45.7129 22.4703 45.7129C22.6081 45.7588 22.7 45.7588 22.8379 45.7588C22.8838 45.7588 22.8838 45.7588 22.9298 45.7588C23.0676 45.8048 23.2055 45.8048 23.3433 45.8048C25.8247 46.0808 28.6737 45.3449 31.7524 43.5974C40.9426 38.3087 48.3407 25.3858 48.3407 14.8084C48.3407 14.5325 48.3407 14.3025 48.3407 14.0726ZM37.2205 6.5764C37.6801 8.04804 37.726 9.61166 37.726 10.6234C37.726 19.9591 30.8793 31.8242 22.7919 36.5151C21.4593 37.2509 20.2187 37.8028 19.0239 38.0787C18.6104 36.6071 18.5185 35.0435 18.5185 34.0317C18.5185 24.696 25.3652 12.8309 33.4526 8.14002C34.7392 7.35821 36.0258 6.85233 37.2205 6.5764Z" fill="#5790D1"/>
<path opacity="0.4" d="M48.3408 14.0728C48.3408 13.8889 48.3408 13.7049 48.2948 13.475C48.2948 13.291 48.2489 13.1071 48.2489 12.9231C48.2489 12.7851 48.2029 12.6932 48.2029 12.5552C48.157 12.2333 48.111 11.9114 48.0651 11.5894C48.0191 11.4515 48.0191 11.3135 47.9732 11.1755C47.9272 11.0376 47.9272 10.8996 47.8813 10.7616C47.7894 10.3937 47.6974 10.0718 47.6055 9.70389C47.5596 9.56592 47.5136 9.38197 47.4677 9.244C47.4677 9.19801 47.4677 9.19801 47.4217 9.15202C47.3758 9.01406 47.3298 8.8301 47.2379 8.69213C47.192 8.50818 47.1001 8.37021 47.0082 8.18626C46.9622 8.04829 46.9163 7.95631 46.8244 7.81835C46.7784 7.72637 46.7325 7.63439 46.6865 7.5884C46.6406 7.49643 46.5946 7.40445 46.5487 7.31247C46.5487 7.26648 46.5027 7.26648 46.5027 7.26648C46.4568 7.1745 46.4108 7.08253 46.3649 6.99055C46.3189 6.94456 46.273 6.89857 46.273 6.80659C45.9973 6.39269 45.7216 6.02478 45.4459 5.70286C45.3999 5.65687 45.3539 5.5649 45.308 5.51891C45.262 5.47292 45.2161 5.42693 45.1701 5.38094C45.1242 5.33495 45.0782 5.28896 44.9863 5.19699C44.8025 5.01303 44.6647 4.87506 44.4809 4.7371C44.389 4.64512 44.2971 4.59913 44.2052 4.55314C44.1133 4.50715 44.0214 4.41518 43.9295 4.36919C43.7916 4.27721 43.6538 4.18523 43.5159 4.09325C40.4831 2.2537 36.1637 2.29969 31.6146 5.151C22.6541 10.9456 15.1641 23.6845 15.1182 33.986C15.1182 39.3667 17.0481 43.1377 20.1268 44.8393C20.2647 44.9313 20.4025 44.9773 20.5404 45.0693C20.7242 45.1613 20.862 45.2072 21.0458 45.2992C21.1837 45.3452 21.3675 45.4372 21.5054 45.4832C21.5973 45.5292 21.6892 45.5292 21.7351 45.5751C21.827 45.6211 21.9189 45.6211 22.0108 45.6671C22.1027 45.7131 22.1946 45.7131 22.2865 45.7131C22.3325 45.7131 22.4244 45.7591 22.4703 45.7591C22.6082 45.8051 22.7001 45.8051 22.8379 45.8051C22.8839 45.8051 22.8839 45.8051 22.9298 45.8051C23.0677 45.8511 23.2055 45.8511 23.3434 45.8511C25.8248 46.127 28.6737 45.3912 31.7524 43.6436C40.9426 38.3549 48.3408 25.4321 48.3408 14.8546C48.3408 14.5327 48.3408 14.3028 48.3408 14.0728ZM30.0523 40.7003C27.9845 41.8501 26.0086 42.4939 24.3084 42.4939C21.1378 42.4939 19.6673 40.3324 19.024 38.033C18.6104 36.5613 18.5185 34.9977 18.5185 33.986C18.5185 24.6502 25.3652 12.7851 33.4526 8.09428C34.7852 7.35846 36.0259 6.80659 37.2206 6.53066C37.9099 6.34671 38.5532 6.30072 39.1506 6.30072C44.4349 6.30072 44.9863 12.2333 44.9863 14.8086C44.9863 24.1444 38.1396 36.0095 30.0523 40.7003Z" fill="#BBFFFF"/>
<path opacity="0.1" d="M44.9863 14.8083C44.9863 24.1441 38.1396 36.0092 30.0522 40.7C27.9844 41.8497 26.0085 42.4936 24.3083 42.4936C22.5162 42.4936 21.2755 41.8037 20.4025 40.792C20.3106 40.7 20.2187 40.608 20.1727 40.4701C20.0808 40.3781 20.0348 40.2401 19.9429 40.1482C19.897 40.0562 19.851 40.0102 19.8051 39.9182C19.7591 39.8722 19.7591 39.8262 19.7132 39.7802C19.6672 39.7343 19.6672 39.6423 19.6213 39.5963C19.5753 39.5503 19.5753 39.4583 19.5294 39.4123C19.4834 39.3663 19.4834 39.2744 19.4375 39.2284C19.3915 39.1364 19.3456 38.9984 19.2996 38.9065C19.2537 38.7685 19.2077 38.6305 19.1618 38.4926C19.1158 38.3546 19.0699 38.2166 19.0239 38.0787C20.2187 37.8027 21.5053 37.2509 22.7919 36.515C30.8793 31.8242 37.726 20.0051 37.726 10.6233C37.726 9.61159 37.6341 8.04798 37.2205 6.57633C37.9098 6.39238 38.5531 6.34639 39.1505 6.34639C39.4262 6.34639 39.6559 6.34639 39.9317 6.39238C40.0236 6.39238 40.1155 6.43837 40.1614 6.43837C44.4808 7.1282 44.9863 12.4169 44.9863 14.8083Z" fill="black"/>
<path opacity="0.7" d="M42.0914 13.1987C42.0914 22.5344 35.2446 34.3996 27.1573 39.0904C25.0895 40.2861 23.1136 40.884 21.4134 40.884C21.0458 40.884 20.7241 40.838 20.4025 40.792C20.3106 40.7 20.2187 40.608 20.1727 40.4701C20.0808 40.3781 20.0348 40.2401 19.9429 40.1482C19.897 40.0562 19.851 40.0102 19.8051 39.9182C19.7591 39.8722 19.7591 39.8262 19.7132 39.7802C19.6672 39.7343 19.6672 39.6423 19.6213 39.5963C19.5753 39.5503 19.5753 39.4583 19.5294 39.4123C19.4834 39.3663 19.4834 39.2744 19.4375 39.2284C19.3915 39.1364 19.3456 38.9984 19.2996 38.9065C19.2537 38.7685 19.2077 38.6305 19.1618 38.4926C19.1158 38.3546 19.0699 38.2166 19.0239 38.0787C20.2187 37.8027 21.5053 37.2509 22.7919 36.515C30.8793 31.8242 37.726 20.0051 37.726 10.6233C37.726 9.61159 37.6341 8.04798 37.2205 6.57633C37.9098 6.39238 38.5531 6.34639 39.1505 6.34639C39.4262 6.34639 39.656 6.34639 39.9317 6.39238C40.0236 6.39238 40.1155 6.43837 40.1614 6.43837C41.8156 8.3699 42.0914 11.4971 42.0914 13.1987Z" fill="#4579B5"/>
</g>
<defs>
<clipPath id="clip0">
<rect width="59.8742" height="50.8176" fill="white" transform="translate(10.0635)"/>
</clipPath>
</defs>
</svg>
